<svg id="Layer_1" data-name="Layer 1" xmlns="http://www.w3.org/2000/svg" viewBox="0 0 159.18 36.94"><path d="M445.84,316.1q6-15.44,13.33-30.29l-1.16-.32-.83,26.24,1.07-.44a34.33,34.33,0,0,1-8.81-11.07l-.54.94a29.61,29.61,0,0,0,22.21-14.54L470,286.3,468,307.11a.63.63,0,0,0,.79.61,6,6,0,0,0,2.78-2,6,6,0,0,1,1.6-1.38,5.79,5.79,0,0,1,3-.16,23.71,23.71,0,0,0,10.61-1.55l-.71-.92-1.14,2.51a.63.63,0,0,0,.54.94,4.63,4.63,0,0,0,3.18-1.8,7,7,0,0,1,3.63-2.36,6.58,6.58,0,0,1,7.16,3.2l.22-.85a8.24,8.24,0,0,1-4.74.79c-.79-.09-.79,1.16,0,1.25a9.34,9.34,0,0,0,5.37-1,.63.63,0,0,0,.23-.85,7.7,7.7,0,0,0-6.95-4,7.36,7.36,0,0,0-3.91,1.13c-1.38.91-2.42,3.09-4.19,3.17l.54.94,1.14-2.51c.2-.43-.14-1.14-.7-.92a25.08,25.08,0,0,1-11.16,1.43,4.74,4.74,0,0,0-3.6,1c-1.06.89-1.8,2.27-3.21,2.63l.79.6,1.92-20.81c.05-.63-.88-.82-1.17-.31a28.29,28.29,0,0,1-21.13,13.92.63.63,0,0,0-.54.94,35.11,35.11,0,0,0,9,11.32.64.64,0,0,0,1.07-.44l.83-26.24a.63.63,0,0,0-1.17-.32q-7.39,15-13.45,30.6c-.29.75.92,1.07,1.2.33Z" transform="translate(-341.42 -279.63)"/><path d="M463,283.45l2.39-1.49a1.3,1.3,0,0,0,.57-.75,1.31,1.31,0,0,0-.12-1,1.3,1.3,0,0,0-.75-.57,1.28,1.28,0,0,0-1,.13l-2.39,1.49a1.32,1.32,0,0,0-.58.75,1.29,1.29,0,0,0,.13,1,1.26,1.26,0,0,0,1.71.45Z" transform="translate(-341.42 -279.63)"/><path d="M359.68,293.31c-3.5-1.2-7.37-1.88-11-.8A10.17,10.17,0,0,0,342,298.3a7.62,7.62,0,0,0,1.64,8.23c2.35,2.19,6,2.72,9.08,2.82,3.62.12,7.57-1.2,8.8-4.94l-1.23-.17a33.47,33.47,0,0,1-2.87,11.38c-.33.72.72,1.36,1.08.63l2.62-5.29,1.2-2.43a9.94,9.94,0,0,1,1.26-2.55c.61-.51,1.06.35,1.59.62a3,3,0,0,0,1.56.29,7.27,7.27,0,0,0,3.58-1.59l-.92-.71a82.76,82.76,0,0,1-2.61,10.28c-.24.78.94,1.09,1.21.34a36.53,36.53,0,0,1,6.69-11.51l-1-.27a4.68,4.68,0,0,0,9.08-.4c.15-.65-.84-1.15-1.14-.48a6.12,6.12,0,0,0-.3,4.49.64.64,0,0,0,.92.38c2.38-1.21,3.36-3.79,4.38-6.09l4.36-9.79-1.16-.31a59.79,59.79,0,0,1-.38,9,23.47,23.47,0,0,1-.73,4.5c-.19.57-.36,1-1,.91a3.33,3.33,0,0,1-1-.46,9.42,9.42,0,0,1-1.8-1.33l-.44,1.07,15.56-.67-.62-.62a2.46,2.46,0,0,0,4,1.75c.65-.62.55-1.59,1.48-2a10.29,10.29,0,0,1,2.83-.39,46.59,46.59,0,0,1,6.14-.15l-.17-1.23A17.79,17.79,0,0,0,408.5,304a.63.63,0,0,0-.22.86,3.59,3.59,0,0,0,6.51-1.22c.15-.65-.84-1.15-1.15-.48a2.46,2.46,0,0,0,2.68,3.32c2.61-.3,3.46-3.28,5.49-4.5l-.86-.22.51,1a.64.64,0,0,0,.86.23l2.55-1.48-.92-.71c-.75,4.39,7.89,2.21,9.74,1.61.76-.25.43-1.46-.33-1.21s-8.59,2.18-8.21-.06a.63.63,0,0,0-.91-.71l-2.55,1.48.85.22-.51-1a.62.62,0,0,0-.85-.23,11.14,11.14,0,0,0-2.67,2.68,5.52,5.52,0,0,1-1.51,1.38c-.72.39-2.93.27-2.28-1.17l-1.14-.48a2.33,2.33,0,0,1-4.22.92l-.23.85a16.41,16.41,0,0,1,4.84-2.24.63.63,0,0,0-.16-1.23,39.34,39.34,0,0,0-8.81.48,2.54,2.54,0,0,0-2.07,1.53c-.32.63-.49,1.16-1.29,1a1.12,1.12,0,0,1-1-1A.63.63,0,0,0,400,303l-15.56.67a.63.63,0,0,0-.44,1.07c1,.93,2.61,2.26,4.07,2.29,1.67,0,1.76-1.9,2-3.13a60.19,60.19,0,0,0,.93-12.64c0-.57-.9-.92-1.17-.32l-3.95,8.88c-1,2.31-1.93,5.32-4.34,6.55l.92.37a4.84,4.84,0,0,1,.16-3.53l-1.14-.48a3.46,3.46,0,0,1-6.67.4.63.63,0,0,0-1-.28,38.19,38.19,0,0,0-7,12.05l1.21.34a87.1,87.1,0,0,0,2.61-10.29c.08-.47-.44-1.06-.92-.7a8,8,0,0,1-2.27,1.26,2.06,2.06,0,0,1-2.35-.61c-.8-.67-1.63-.79-2.32.11a29.77,29.77,0,0,0-2.49,4.91l-2.83,5.73,1.08.63a35.2,35.2,0,0,0,3-12c.05-.73-1-.81-1.23-.17-1.36,4.15-6.4,4.33-10,3.82-3.35-.48-7-1.83-7.54-5.61-.54-3.6,1.84-6.7,5-8.1,3.71-1.64,7.88-.93,11.59.34.76.26,1.09-.95.33-1.21Z" transform="translate(-341.42 -279.63)"/><path d="M413.34,301.07l4.69-6.48a.63.63,0,0,0-.22-.86.64.64,0,0,0-.86.23l-4.69,6.48a.63.63,0,0,0,1.08.63Z" transform="translate(-341.42 -279.63)"/></svg>